<svg width="300" height="300" viewBox="0 0 300 300" fill="none" xmlns="http://www.w3.org/2000/svg">
<path d="M13 200H287" stroke="#0065FF" stroke-width="3" stroke-linecap="round"/>
<path d="M48.016 179C47.386 179 47.001 178.685 46.861 178.055L33.841 127.025L33.736 126.605C33.736 126.115 34.051 125.87 34.681 125.87H40.771C41.401 125.87 41.786 126.185 41.926 126.815L50.956 166.61C51.026 166.82 51.096 166.925 51.166 166.925C51.236 166.925 51.306 166.82 51.376 166.61L60.301 126.815C60.441 126.185 60.826 125.87 61.456 125.87L67.546 125.975C67.896 125.975 68.141 126.08 68.281 126.29C68.491 126.5 68.526 126.78 68.386 127.13L55.471 178.055C55.401 178.685 55.016 179 54.316 179H48.016ZM118.898 154.22C118.898 154.92 118.548 155.27 117.848 155.27H93.9084C93.6284 155.27 93.4884 155.41 93.4884 155.69V163.355C93.4884 166.295 94.2934 168.71 95.9034 170.6C97.5834 172.42 99.7534 173.33 102.413 173.33C104.653 173.33 106.543 172.665 108.083 171.335C109.693 169.935 110.743 168.15 111.233 165.98C111.443 165.35 111.828 165.035 112.388 165.035L117.638 165.245C117.918 165.245 118.163 165.35 118.373 165.56C118.583 165.77 118.653 166.05 118.583 166.4C118.023 170.53 116.308 173.82 113.438 176.27C110.638 178.65 106.963 179.84 102.413 179.84C97.4434 179.84 93.4534 178.37 90.4434 175.43C87.5034 172.49 86.0334 168.605 86.0334 163.775V141.095C86.0334 136.335 87.5034 132.485 90.4434 129.545C93.4534 126.535 97.4434 125.03 102.413 125.03C107.453 125.03 111.443 126.535 114.383 129.545C117.393 132.485 118.898 136.335 118.898 141.095V154.22ZM102.413 131.54C99.7534 131.54 97.5834 132.485 95.9034 134.375C94.2934 136.195 93.4884 138.61 93.4884 141.62V148.655C93.4884 148.935 93.6284 149.075 93.9084 149.075H111.128C111.408 149.075 111.548 148.935 111.548 148.655V141.62C111.548 138.61 110.708 136.195 109.028 134.375C107.348 132.485 105.143 131.54 102.413 131.54ZM158.402 125.345C160.152 125.345 161.657 125.73 162.917 126.5C163.407 126.78 163.582 127.235 163.442 127.865L162.182 133.325C162.112 133.955 161.692 134.165 160.922 133.955C160.082 133.535 159.032 133.325 157.772 133.325C157.212 133.325 156.792 133.36 156.512 133.43C153.992 133.57 151.927 134.9 150.317 137.42C148.707 139.87 147.902 142.88 147.902 146.45V177.95C147.902 178.65 147.552 179 146.852 179H141.497C140.797 179 140.447 178.65 140.447 177.95V126.92C140.447 126.22 140.797 125.87 141.497 125.87H146.852C147.552 125.87 147.902 126.22 147.902 126.92V133.22C147.902 133.43 147.937 133.535 148.007 133.535C148.147 133.535 148.287 133.465 148.427 133.325C150.457 128.005 153.782 125.345 158.402 125.345ZM193.334 179C192.704 179 192.319 178.685 192.179 178.055L179.159 127.025L179.054 126.605C179.054 126.115 179.369 125.87 179.999 125.87H186.089C186.719 125.87 187.104 126.185 187.244 126.815L196.274 166.61C196.344 166.82 196.414 166.925 196.484 166.925C196.554 166.925 196.624 166.82 196.694 166.61L205.619 126.815C205.759 126.185 206.144 125.87 206.774 125.87L212.864 125.975C213.214 125.975 213.459 126.08 213.599 126.29C213.809 126.5 213.844 126.78 213.704 127.13L200.789 178.055C200.719 178.685 200.334 179 199.634 179H193.334ZM264.217 154.22C264.217 154.92 263.867 155.27 263.167 155.27H239.227C238.947 155.27 238.807 155.41 238.807 155.69V163.355C238.807 166.295 239.612 168.71 241.222 170.6C242.902 172.42 245.072 173.33 247.732 173.33C249.972 173.33 251.862 172.665 253.402 171.335C255.012 169.935 256.062 168.15 256.552 165.98C256.762 165.35 257.147 165.035 257.707 165.035L262.957 165.245C263.237 165.245 263.482 165.35 263.692 165.56C263.902 165.77 263.972 166.05 263.902 166.4C263.342 170.53 261.627 173.82 258.757 176.27C255.957 178.65 252.282 179.84 247.732 179.84C242.762 179.84 238.772 178.37 235.762 175.43C232.822 172.49 231.352 168.605 231.352 163.775V141.095C231.352 136.335 232.822 132.485 235.762 129.545C238.772 126.535 242.762 125.03 247.732 125.03C252.772 125.03 256.762 126.535 259.702 129.545C262.712 132.485 264.217 136.335 264.217 141.095V154.22ZM247.732 131.54C245.072 131.54 242.902 132.485 241.222 134.375C239.612 136.195 238.807 138.61 238.807 141.62V148.655C238.807 148.935 238.947 149.075 239.227 149.075H256.447C256.727 149.075 256.867 148.935 256.867 148.655V141.62C256.867 138.61 256.027 136.195 254.347 134.375C252.667 132.485 250.462 131.54 247.732 131.54Z" fill="#0065FF"/>
</svg>
