<svg width="300" height="150" viewBox="0 0 300 150" fill="none" xmlns="http://www.w3.org/2000/svg">
<path d="M13 125H287" stroke="#0065FF" stroke-width="3" stroke-linecap="round"/>
<path d="M48.016 104C47.386 104 47.001 103.685 46.861 103.055L33.841 52.025L33.736 51.605C33.736 51.115 34.051 50.87 34.681 50.87H40.771C41.401 50.87 41.786 51.185 41.926 51.815L50.956 91.61C51.026 91.82 51.096 91.925 51.166 91.925C51.236 91.925 51.306 91.82 51.376 91.61L60.301 51.815C60.441 51.185 60.826 50.87 61.456 50.87L67.546 50.975C67.896 50.975 68.141 51.08 68.281 51.29C68.491 51.5 68.526 51.78 68.386 52.13L55.471 103.055C55.401 103.685 55.016 104 54.316 104H48.016ZM118.898 79.22C118.898 79.92 118.548 80.27 117.848 80.27H93.9084C93.6284 80.27 93.4884 80.41 93.4884 80.69V88.355C93.4884 91.295 94.2934 93.71 95.9034 95.6C97.5834 97.42 99.7534 98.33 102.413 98.33C104.653 98.33 106.543 97.665 108.083 96.335C109.693 94.935 110.743 93.15 111.233 90.98C111.443 90.35 111.828 90.035 112.388 90.035L117.638 90.245C117.918 90.245 118.163 90.35 118.373 90.56C118.583 90.77 118.653 91.05 118.583 91.4C118.023 95.53 116.308 98.82 113.438 101.27C110.638 103.65 106.963 104.84 102.413 104.84C97.4434 104.84 93.4534 103.37 90.4434 100.43C87.5034 97.49 86.0334 93.605 86.0334 88.775V66.095C86.0334 61.335 87.5034 57.485 90.4434 54.545C93.4534 51.535 97.4434 50.03 102.413 50.03C107.453 50.03 111.443 51.535 114.383 54.545C117.393 57.485 118.898 61.335 118.898 66.095V79.22ZM102.413 56.54C99.7534 56.54 97.5834 57.485 95.9034 59.375C94.2934 61.195 93.4884 63.61 93.4884 66.62V73.655C93.4884 73.935 93.6284 74.075 93.9084 74.075H111.128C111.408 74.075 111.548 73.935 111.548 73.655V66.62C111.548 63.61 110.708 61.195 109.028 59.375C107.348 57.485 105.143 56.54 102.413 56.54ZM158.402 50.345C160.152 50.345 161.657 50.73 162.917 51.5C163.407 51.78 163.582 52.235 163.442 52.865L162.182 58.325C162.112 58.955 161.692 59.165 160.922 58.955C160.082 58.535 159.032 58.325 157.772 58.325C157.212 58.325 156.792 58.36 156.512 58.43C153.992 58.57 151.927 59.9 150.317 62.42C148.707 64.87 147.902 67.88 147.902 71.45V102.95C147.902 103.65 147.552 104 146.852 104H141.497C140.797 104 140.447 103.65 140.447 102.95V51.92C140.447 51.22 140.797 50.87 141.497 50.87H146.852C147.552 50.87 147.902 51.22 147.902 51.92V58.22C147.902 58.43 147.937 58.535 148.007 58.535C148.147 58.535 148.287 58.465 148.427 58.325C150.457 53.005 153.782 50.345 158.402 50.345ZM193.334 104C192.704 104 192.319 103.685 192.179 103.055L179.159 52.025L179.054 51.605C179.054 51.115 179.369 50.87 179.999 50.87H186.089C186.719 50.87 187.104 51.185 187.244 51.815L196.274 91.61C196.344 91.82 196.414 91.925 196.484 91.925C196.554 91.925 196.624 91.82 196.694 91.61L205.619 51.815C205.759 51.185 206.144 50.87 206.774 50.87L212.864 50.975C213.214 50.975 213.459 51.08 213.599 51.29C213.809 51.5 213.844 51.78 213.704 52.13L200.789 103.055C200.719 103.685 200.334 104 199.634 104H193.334ZM264.217 79.22C264.217 79.92 263.867 80.27 263.167 80.27H239.227C238.947 80.27 238.807 80.41 238.807 80.69V88.355C238.807 91.295 239.612 93.71 241.222 95.6C242.902 97.42 245.072 98.33 247.732 98.33C249.972 98.33 251.862 97.665 253.402 96.335C255.012 94.935 256.062 93.15 256.552 90.98C256.762 90.35 257.147 90.035 257.707 90.035L262.957 90.245C263.237 90.245 263.482 90.35 263.692 90.56C263.902 90.77 263.972 91.05 263.902 91.4C263.342 95.53 261.627 98.82 258.757 101.27C255.957 103.65 252.282 104.84 247.732 104.84C242.762 104.84 238.772 103.37 235.762 100.43C232.822 97.49 231.352 93.605 231.352 88.775V66.095C231.352 61.335 232.822 57.485 235.762 54.545C238.772 51.535 242.762 50.03 247.732 50.03C252.772 50.03 256.762 51.535 259.702 54.545C262.712 57.485 264.217 61.335 264.217 66.095V79.22ZM247.732 56.54C245.072 56.54 242.902 57.485 241.222 59.375C239.612 61.195 238.807 63.61 238.807 66.62V73.655C238.807 73.935 238.947 74.075 239.227 74.075H256.447C256.727 74.075 256.867 73.935 256.867 73.655V66.62C256.867 63.61 256.027 61.195 254.347 59.375C252.667 57.485 250.462 56.54 247.732 56.54Z" fill="#0065FF"/>
</svg>
